{"asset":{"generator":"3D Builder","version":"2.0"},"scene":0,"scenes":[{"nodes":[0]}],"nodes":[{"mesh":0,"matrix":[1,0,0,0,0,-1.1920928955078125E-7,-0.99999988079071045,0,0,0.99999988079071045,-1.1920928955078125E-7,0,0,0.00018033997912425548,-2.1498202523728693E-11,1]}],"meshes":[{"primitives":[{"attributes":{"POSITION":0,"TEXCOORD_0":1},"mode":4,"indices":2,"material":0}]}],"materials":[{"pbrMetallicRoughness":{"baseColorFactor":[1,1,1,1],"metallicFactor":0,"roughnessFactor":1,"baseColorTexture":{"index":0,"texCoord":0}},"alphaMode":"OPAQUE"}],"textures":[{"source":0,"sampler":0}],"images":[{"uri":"Dog.jpg"}],"samplers":[{"magFilter":9729,"wrapS":10497,"wrapT":10497}],"accessors":[{"bufferView":0,"byteOffset":0,"count":46635,"componentType":5126,"type":"VEC3","min":[-0.0037947597447782755,-0.013337539508938789,-0.00018033999367617071],"max":[0.003791633527725935,0.013337539508938789,0.021853277459740639]},{"bufferView":1,"byteOffset":0,"count":46635,"componentType":5126,"type":"VEC2"},{"bufferView":2,"byteOffset":0,"count":265326,"componentType":5125,"type":"SCALAR"}],"bufferViews":[{"buffer":0,"byteOffset":0,"byteLength":559620,"byteStride":12,"target":34962},{"buffer":0,"byteOffset":559620,"byteLength":373080,"byteStride":8,"target":34962},{"buffer":0,"byteOffset":932700,"byteLength":1061304,"target":34963}],"buffers":[{"byteLength":1994004,"uri":"dog.bin"}]}